# xmcd CD Database Entry
#
# Track frame offsets:
# 150
# 12897
# 28575
# 43520
# 58472
# 72025
# 84455
# 97455
# 114327
# 127057
# 142402
# 154925
# 168725
# 181982
#
# Disc length: 2567 seconds
#
# Revision: 3
# Processed by: cddbd v1.4b41PL1 Copyright (c) Steve Scherf et al.
# Submitted via: tcd 2.0b
#
DISCID=cf0a050e
DTITLE=Hash Brown - Hash Brown's Texas Blues Revue
DYEAR=1900
DGENRE=
TTITLE0=Big Boy
TTITLE1=Hey Little Girl
TTITLE2=My Baby's Gone
TTITLE3=Mistreated Blues ("T" Is For Texas)
TTITLE4=My Daily Wish Is
TTITLE5=Dog In A Man
TTITLE6=I Can't Lose With The Stuff I Use
TTITLE7=Cry, Cry, Cry
TTITLE8=Got You Where You Want Me
TTITLE9=Sad And Lonesome
TTITLE10=Ain't Gonna Let You In
TTITLE11=I Sat And Cried
TTITLE12=Hangin' With Terry
TTITLE13=Honey Boy
EXTD=Brian Calway - guitar\nTerry Groff-Montgomery - bass\nBobby B
EXTD=aranowski - drums\n**Dedicated to the Life and Memory of ZuZu
EXTD=Bollin**
EXTT0=Keith Winkling\nKaz Kazanoff
EXTT1=ZuZ Bollin\nPete Brewer
EXTT2=Darrell Nulisch\nKeith Winkling\nKaz Kazanoff
EXTT3=Keith Winkling\nKaz Kazanoff
EXTT4=Sam Myers
EXTT5=Sam Myers\nPete Brewer
EXTT6=ZuZu Bollin\nPete Brewer
EXTT7=ZuZu Bollin\nPete Brewer
EXTT8=Sam Myers
EXTT9=Sam Myers
EXTT10=ZuZu Bollin\nSam Myers\nPete Brewer\nDon Brozman
EXTT11=Darrell Nulisch\nDon Brozman\nKeith Winkling\nKaz Kazanoff
EXTT12=Terry Groff-Montgomery\nBobby Baranowski\nNick Connelly\nKeit
EXTT12=h Winkling\nKaz Kazanoff
EXTT13=
PLAYORDER=
